# xmcd
#
# Track frame offsets: 
#        150
#        20387
#        37242
#        56402
#        70955
#        89952
#        108240
#        125412
#        141590
#        158330
#        183109
#
# Disc length: 2729 seconds
#
# Revision: 0
# Processed by: cddbd v1.5.2PL0 Copyright (c) Steve Scherf et al.
# Submitted via: ExactAudioCopy v0.95b4
#
DISCID=980aa70b
DTITLE=The Jone's Bros - The Jone's Bros
DYEAR=1995
DGENRE=
TTITLE0=Love Is A Lie
TTITLE1=What A Love I Had
TTITLE2=Road To Hell
TTITLE3=Red Hot Dancing Fever
TTITLE4=Rain
TTITLE5=Goodbye My Love
TTITLE6=Suicide Suzie
TTITLE7=Powerplay Of Pride
TTITLE8=Ten Meters
TTITLE9=The Cage
TTITLE10=Tonight
EXTD=
EXTT0=
EXTT1=
EXTT2=
EXTT3=
EXTT4=
EXTT5=
EXTT6=
EXTT7=
EXTT8=
EXTT9=
EXTT10=
PLAYORDER=
